<?xml version="1.0" encoding="utf-8"?>
<!-- Generator: Adobe Illustrator 28.3.0, SVG Export Plug-In . SVG Version: 6.00 Build 0)  -->
<svg version="1.1" xmlns="http://www.w3.org/2000/svg" xmlns:xlink="http://www.w3.org/1999/xlink" x="0px" y="0px"
	 viewBox="0 0 365.4 313.8" style="enable-background:new 0 0 365.4 313.8;" xml:space="preserve">
<style type="text/css">
	.st0{opacity:0.1;fill:#ff00b7;}
	.st1{opacity:0.28;fill:#ff00b7;}
	.st2{opacity:0.46;fill:#ff00b7;}
	.st3{opacity:0.64;fill:#ff00b7;}
	.st4{opacity:0.82;fill:#ff00b7;}
	.st5{fill:#ff00b7;}
</style>
<g id="Calque_1">
</g>
<g id="Construction">
	<g id="eLeGarage_x5F_Simple_2_">
		<path class="st0" d="M280.2,169.1c0.2-1.4,0.3-2.8,0.4-4.2H145.7v4.2h-14.9v5.5h14.9v5.5h-9.9v2.9h111
			c-2.5,9.3-6.9,17.9-12.7,25.5h-9.9c-1.2,1.6-2.5,3.1-3.8,4.6h9.9c-4.2,4.7-9,8.9-14.1,12.6h5c-6.3,4.5-13.2,8.1-20.5,10.8h-14.9
			c-9.3,3.5-19.3,5.3-29.2,5.3c-10.7,0-21-1.9-30.6-5.3h14.9c-7.5-2.7-14.5-6.3-20.9-10.8h-5c-5.2-3.7-10.1-7.9-14.3-12.6h-9.9
			c-1.4-1.5-2.7-3-3.9-4.6h9.9c-6.6-8.3-11.6-17.9-14.6-28.4H92c-0.5-1.8-0.9-3.6-1.3-5.5H75.8c-0.4-1.8-0.7-3.6-1-5.5h14.9
			c-0.3-1.8-0.5-3.7-0.6-5.5H74.2c-0.2-2.1-0.3-4.3-0.3-6.4c0-2.7,0.1-5.3,0.4-8h5c0.1-1.3,0.3-2.6,0.5-3.8
			c1.1-7.8,3.3-15.3,6.4-22.2h5c0.4-0.9,0.8-1.8,1.3-2.7h-5c0.7-1.5,1.5-2.9,2.3-4.3h-9.9c3-5.3,6.6-10.3,10.7-14.8h14.9
			c6.1-6.9,13.3-12.8,21.4-17.4h5c2.2-1.3,4.5-2.5,6.8-3.6h-9.9c11.4-5.3,24-8.3,37.2-8.3c12.7,0,25.3,3,36.7,8.3h9.9
			c2.3,1.1,4.5,2.3,6.7,3.6h-5c8,4.7,15.1,10.5,20.8,17.4h-14.9c2.4,2.9,4.6,5.9,6.5,9.1h23.1c-1.3-3-2.8-6.1-4.7-9.1h14.9
			c-3.7-6-8.6-11.9-14.4-17.4h5c-1.3-1.2-2.6-2.4-4-3.6h-9.9c-5.3-4.5-11.2-8.6-17.7-12.3h-6.8c-4.9-2.7-10.1-5.1-15.6-7.2h28.2
			c-4.1-1.5-8.2-2.8-12.5-3.8h-21.4c-8-2-16.5-3.1-25.2-3.1c-8.8,0-17.4,1.1-25.6,3.1h21.4c-4.3,1-8.5,2.3-12.5,3.8h-28.2
			c-5.4,2-10.5,4.4-15.4,7.2h6.8c-6.2,3.5-12,7.6-17.4,12.3h9.9c-1.3,1.2-2.6,2.3-3.9,3.6h-5C90,89.2,85.1,95,80.9,101.3H66
			c-3.1,4.7-5.9,9.6-8.2,14.8h9.9c-0.6,1.4-1.2,2.9-1.8,4.3h5c-0.3,0.9-0.7,1.8-1,2.7h-5c-2.6,7.1-4.3,14.5-5.2,22.2
			c-0.1,1.3-0.3,2.6-0.4,3.8h-5c-0.2,2.5-0.3,5.1-0.3,7.7c0,2.3,0.1,4.5,0.2,6.7h14.9c0.1,1.9,0.3,3.7,0.5,5.5H54.8
			c0.2,1.8,0.5,3.7,0.8,5.5h14.9c0.3,1.8,0.7,3.7,1.1,5.5h-9.9c2.5,10.2,6.5,19.7,11.8,28.4h-9.9c1,1.6,2,3.1,3,4.6h9.9
			c3.1,4.5,6.5,8.7,10.3,12.6h5c3.7,3.9,7.7,7.5,11.9,10.8H88.8c4.6,3.6,9.5,6.8,14.6,9.6h19.8c7.4,4.1,15.2,7.3,23.3,9.6h-9.9
			c9.4,2.7,19.1,4.1,28.9,4.1c10.3,0,20.2-1.4,29.6-4.1h9.9c8.1-2.3,15.8-5.6,23-9.6h-19.8c5-2.8,9.8-6,14.3-9.6h14.9
			c4.1-3.3,8-6.9,11.6-10.8h-5c3.6-3.9,6.9-8.2,9.9-12.6h-9.9c1-1.5,2-3,2.9-4.6h9.9c5.2-8.7,9.1-18.3,11.5-28.4h9.9
			c0.4-1.8,0.8-3.6,1.1-5.5h-14.9c0.3-1.8,0.6-3.6,0.8-5.5H280.2z"/>
		<path class="st1" d="M286.3,169.1c0.2-1.4,0.3-2.8,0.4-4.2H151.9v4.2H137v5.5h14.9v5.5H142v2.9h111c-2.5,9.3-6.9,17.9-12.7,25.5
			h-9.9c-1.2,1.6-2.5,3.1-3.8,4.6h9.9c-4.2,4.7-9,8.9-14.1,12.6h5c-6.3,4.5-13.2,8.1-20.5,10.8h-14.9c-9.3,3.5-19.3,5.3-29.2,5.3
			c-10.7,0-21-1.9-30.6-5.3h14.9c-7.5-2.7-14.5-6.3-20.9-10.8h-5c-5.2-3.7-10.1-7.9-14.3-12.6h-9.9c-1.4-1.5-2.7-3-3.9-4.6h9.9
			c-6.6-8.3-11.6-17.9-14.6-28.4h9.9c-0.5-1.8-0.9-3.6-1.3-5.5H81.9c-0.4-1.8-0.7-3.6-1-5.5h14.9c-0.3-1.8-0.5-3.7-0.6-5.5H80.3
			c-0.2-2.1-0.3-4.3-0.3-6.4c0-2.7,0.1-5.3,0.4-8h5c0.1-1.3,0.3-2.6,0.5-3.8c1.1-7.8,3.3-15.3,6.4-22.2h5c0.4-0.9,0.8-1.8,1.3-2.7
			h-5c0.7-1.5,1.5-2.9,2.3-4.3h-9.9c3-5.3,6.6-10.3,10.7-14.8h14.9c6.1-6.9,13.3-12.8,21.4-17.4h5c2.2-1.3,4.5-2.5,6.8-3.6h-9.9
			c11.4-5.3,24-8.3,37.2-8.3c12.7,0,25.3,3,36.7,8.3h9.9c2.3,1.1,4.5,2.3,6.7,3.6h-5c8,4.7,15.1,10.5,20.8,17.4h-14.9
			c2.4,2.9,4.6,5.9,6.5,9.1h23.1c-1.3-3-2.8-6.1-4.7-9.1h14.9c-3.7-6-8.6-11.9-14.4-17.4h5c-1.3-1.2-2.6-2.4-4-3.6h-9.9
			c-5.3-4.5-11.2-8.6-17.7-12.3H218c-4.9-2.7-10.1-5.1-15.6-7.2h28.2c-4.1-1.5-8.2-2.8-12.5-3.8h-21.4c-8-2-16.5-3.1-25.2-3.1
			c-8.8,0-17.4,1.1-25.6,3.1h21.4c-4.3,1-8.5,2.3-12.5,3.8h-28.2c-5.4,2-10.5,4.4-15.4,7.2h6.8c-6.2,3.5-12,7.6-17.4,12.3h9.9
			c-1.3,1.2-2.6,2.3-3.9,3.6h-5C96.1,89.2,91.2,95,87,101.3H72.2c-3.1,4.7-5.9,9.6-8.2,14.8h9.9c-0.6,1.4-1.2,2.9-1.8,4.3h5
			c-0.3,0.9-0.7,1.8-1,2.7h-5c-2.6,7.1-4.3,14.5-5.2,22.2c-0.1,1.3-0.3,2.6-0.4,3.8h-5c-0.2,2.5-0.3,5.1-0.3,7.7
			c0,2.3,0.1,4.5,0.2,6.7h14.9c0.1,1.9,0.3,3.7,0.5,5.5H61c0.2,1.8,0.5,3.7,0.8,5.5h14.9c0.3,1.8,0.7,3.7,1.1,5.5h-9.9
			c2.5,10.2,6.5,19.7,11.8,28.4h-9.9c1,1.6,2,3.1,3,4.6h9.9c3.1,4.5,6.5,8.7,10.3,12.6h5c3.7,3.9,7.7,7.5,11.9,10.8H95
			c4.6,3.6,9.5,6.8,14.6,9.6h19.8c7.4,4.1,15.2,7.3,23.3,9.6h-9.9c9.4,2.7,19.1,4.1,28.9,4.1c10.3,0,20.2-1.4,29.6-4.1h9.9
			c8.1-2.3,15.8-5.6,23-9.6h-19.8c5-2.8,9.8-6,14.3-9.6h14.9c4.1-3.3,8-6.9,11.6-10.8h-5c3.6-3.9,6.9-8.2,9.9-12.6h-9.9
			c1-1.5,2-3,2.9-4.6h9.9c5.2-8.7,9.1-18.3,11.5-28.4h9.9c0.4-1.8,0.8-3.6,1.1-5.5h-14.9c0.3-1.8,0.6-3.6,0.8-5.5H286.3z"/>
		<path class="st2" d="M292.5,169.1c0.2-1.4,0.3-2.8,0.4-4.2H158v4.2h-14.9v5.5H158v5.5h-9.9v2.9h111c-2.5,9.3-6.9,17.9-12.7,25.5
			h-9.9c-1.2,1.6-2.5,3.1-3.8,4.6h9.9c-4.2,4.7-9,8.9-14.1,12.6h5c-6.3,4.5-13.2,8.1-20.5,10.8h-14.9c-9.3,3.5-19.3,5.3-29.2,5.3
			c-10.7,0-21-1.9-30.6-5.3h14.9c-7.5-2.7-14.5-6.3-20.9-10.8h-5c-5.2-3.7-10.1-7.9-14.3-12.6H103c-1.4-1.5-2.7-3-3.9-4.6h9.9
			c-6.6-8.3-11.6-17.9-14.6-28.4h9.9c-0.5-1.8-0.9-3.6-1.3-5.5H88.1c-0.4-1.8-0.7-3.6-1-5.5H102c-0.3-1.8-0.5-3.7-0.6-5.5H86.5
			c-0.2-2.1-0.3-4.3-0.3-6.4c0-2.7,0.1-5.3,0.4-8h5c0.1-1.3,0.3-2.6,0.5-3.8c1.1-7.8,3.3-15.3,6.4-22.2h5c0.4-0.9,0.8-1.8,1.3-2.7
			h-5c0.7-1.5,1.5-2.9,2.3-4.3h-9.9c3-5.3,6.6-10.3,10.7-14.8h14.9c6.1-6.9,13.3-12.8,21.4-17.4h5c2.2-1.3,4.5-2.5,6.8-3.6h-9.9
			c11.4-5.3,24-8.3,37.2-8.3c12.7,0,25.3,3,36.7,8.3h9.9c2.3,1.1,4.5,2.3,6.7,3.6h-5c8,4.7,15.1,10.5,20.8,17.4h-14.9
			c2.4,2.9,4.6,5.9,6.5,9.1h23.1c-1.3-3-2.8-6.1-4.7-9.1H272c-3.7-6-8.6-11.9-14.4-17.4h5c-1.3-1.2-2.6-2.4-4-3.6h-9.9
			c-5.3-4.5-11.2-8.6-17.7-12.3h-6.8c-4.9-2.7-10.1-5.1-15.6-7.2h28.2c-4.1-1.5-8.2-2.8-12.5-3.8h-21.4c-8-2-16.5-3.1-25.2-3.1
			c-8.8,0-17.4,1.1-25.6,3.1h21.4c-4.3,1-8.5,2.3-12.5,3.8h-28.2c-5.4,2-10.5,4.4-15.4,7.2h6.8c-6.2,3.5-12,7.6-17.4,12.3h9.9
			c-1.3,1.2-2.6,2.3-3.9,3.6h-5c-5.5,5.3-10.4,11.1-14.6,17.4H78.3c-3.1,4.7-5.9,9.6-8.2,14.8H80c-0.6,1.4-1.2,2.9-1.8,4.3h5
			c-0.3,0.9-0.7,1.8-1,2.7h-5c-2.6,7.1-4.3,14.5-5.2,22.2c-0.1,1.3-0.3,2.6-0.4,3.8h-5c-0.2,2.5-0.3,5.1-0.3,7.7
			c0,2.3,0.1,4.5,0.2,6.7h14.9c0.1,1.9,0.3,3.7,0.5,5.5H67.1c0.2,1.8,0.5,3.7,0.8,5.5h14.9c0.3,1.8,0.7,3.7,1.1,5.5h-9.9
			c2.5,10.2,6.5,19.7,11.8,28.4H76c1,1.6,2,3.1,3,4.6h9.9c3.1,4.5,6.5,8.7,10.3,12.6h5c3.7,3.9,7.7,7.5,11.9,10.8h-14.9
			c4.6,3.6,9.5,6.8,14.6,9.6h19.8c7.4,4.1,15.2,7.3,23.3,9.6H149c9.4,2.7,19.1,4.1,28.9,4.1c10.3,0,20.2-1.4,29.6-4.1h9.9
			c8.1-2.3,15.8-5.6,23-9.6h-19.8c5-2.8,9.8-6,14.3-9.6h14.9c4.1-3.3,8-6.9,11.6-10.8h-5c3.6-3.9,6.9-8.2,9.9-12.6h-9.9
			c1-1.5,2-3,2.9-4.6h9.9c5.2-8.7,9.1-18.3,11.5-28.4h9.9c0.4-1.8,0.8-3.6,1.1-5.5h-14.9c0.3-1.8,0.6-3.6,0.8-5.5H292.5z"/>
		<path class="st3" d="M298.6,169.1c0.2-1.4,0.3-2.8,0.4-4.2H164.2v4.2h-14.9v5.5h14.9v5.5h-9.9v2.9h111
			c-2.5,9.3-6.9,17.9-12.7,25.5h-9.9c-1.2,1.6-2.5,3.1-3.8,4.6h9.9c-4.2,4.7-9,8.9-14.1,12.6h5c-6.3,4.5-13.2,8.1-20.5,10.8h-14.9
			c-9.3,3.5-19.3,5.3-29.2,5.3c-10.7,0-21-1.9-30.6-5.3h14.9c-7.5-2.7-14.5-6.3-20.9-10.8h-5c-5.2-3.7-10.1-7.9-14.3-12.6h-9.9
			c-1.4-1.5-2.7-3-3.9-4.6h9.9c-6.6-8.3-11.6-17.9-14.6-28.4h9.9c-0.5-1.8-0.9-3.6-1.3-5.5H94.2c-0.4-1.8-0.7-3.6-1-5.5h14.9
			c-0.3-1.8-0.5-3.7-0.6-5.5H92.6c-0.2-2.1-0.3-4.3-0.3-6.4c0-2.7,0.1-5.3,0.4-8h5c0.1-1.3,0.3-2.6,0.5-3.8
			c1.1-7.8,3.3-15.3,6.4-22.2h5c0.4-0.9,0.8-1.8,1.3-2.7h-5c0.7-1.5,1.5-2.9,2.3-4.3h-9.9c3-5.3,6.6-10.3,10.7-14.8h14.9
			c6.1-6.9,13.3-12.8,21.4-17.4h5c2.2-1.3,4.5-2.5,6.8-3.6H147c11.4-5.3,24-8.3,37.2-8.3c12.7,0,25.3,3,36.7,8.3h9.9
			c2.3,1.1,4.5,2.3,6.7,3.6h-5c8,4.7,15.1,10.5,20.8,17.4h-14.9c2.4,2.9,4.6,5.9,6.5,9.1H268c-1.3-3-2.8-6.1-4.7-9.1h14.9
			c-3.7-6-8.6-11.9-14.4-17.4h5c-1.3-1.2-2.6-2.4-4-3.6h-9.9c-5.3-4.5-11.2-8.6-17.7-12.3h-6.8c-4.9-2.7-10.1-5.1-15.6-7.2H243
			c-4.1-1.5-8.2-2.8-12.5-3.8H209c-8-2-16.5-3.1-25.2-3.1c-8.8,0-17.4,1.1-25.6,3.1h21.4c-4.3,1-8.5,2.3-12.5,3.8h-28.2
			c-5.4,2-10.5,4.4-15.4,7.2h6.8c-6.2,3.5-12,7.6-17.4,12.3h9.9c-1.3,1.2-2.6,2.3-3.9,3.6h-5c-5.5,5.3-10.4,11.1-14.6,17.4H84.5
			c-3.1,4.7-5.9,9.6-8.2,14.8h9.9c-0.6,1.4-1.2,2.9-1.8,4.3h5c-0.3,0.9-0.7,1.8-1,2.7h-5c-2.6,7.1-4.3,14.5-5.2,22.2
			c-0.1,1.3-0.3,2.6-0.4,3.8h-5c-0.2,2.5-0.3,5.1-0.3,7.7c0,2.3,0.1,4.5,0.2,6.7h14.9c0.1,1.9,0.3,3.7,0.5,5.5H73.3
			c0.2,1.8,0.5,3.7,0.8,5.5H89c0.3,1.8,0.7,3.7,1.1,5.5h-9.9c2.5,10.2,6.5,19.7,11.8,28.4h-9.9c1,1.6,2,3.1,3,4.6h9.9
			c3.1,4.5,6.5,8.7,10.3,12.6h5c3.7,3.9,7.7,7.5,11.9,10.8h-14.9c4.6,3.6,9.5,6.8,14.6,9.6h19.8c7.4,4.1,15.2,7.3,23.3,9.6h-9.9
			c9.4,2.7,19.1,4.1,28.9,4.1c10.3,0,20.2-1.4,29.6-4.1h9.9c8.1-2.3,15.8-5.6,23-9.6h-19.8c5-2.8,9.8-6,14.3-9.6H256
			c4.1-3.3,8-6.9,11.6-10.8h-5c3.6-3.9,6.9-8.2,9.9-12.6h-9.9c1-1.5,2-3,2.9-4.6h9.9c5.2-8.7,9.1-18.3,11.5-28.4h9.9
			c0.4-1.8,0.8-3.6,1.1-5.5h-14.9c0.3-1.8,0.6-3.6,0.8-5.5H298.6z"/>
		<path class="st4" d="M304.8,169.1c0.2-1.4,0.3-2.8,0.4-4.2H170.4v4.2h-14.9v5.5h14.9v5.5h-9.9v2.9h111
			c-2.5,9.3-6.9,17.9-12.7,25.5h-9.9c-1.2,1.6-2.5,3.1-3.8,4.6h9.9c-4.2,4.7-9,8.9-14.1,12.6h5c-6.3,4.5-13.2,8.1-20.5,10.8h-14.9
			c-9.3,3.5-19.3,5.3-29.2,5.3c-10.7,0-21-1.9-30.6-5.3h14.9c-7.5-2.7-14.5-6.3-20.9-10.8h-5c-5.2-3.7-10.1-7.9-14.3-12.6h-9.9
			c-1.4-1.5-2.7-3-3.9-4.6h9.9c-6.6-8.3-11.6-17.9-14.6-28.4h9.9c-0.5-1.8-0.9-3.6-1.3-5.5h-14.9c-0.4-1.8-0.7-3.6-1-5.5h14.9
			c-0.3-1.8-0.5-3.7-0.6-5.5H98.8c-0.2-2.1-0.3-4.3-0.3-6.4c0-2.7,0.1-5.3,0.4-8h5c0.1-1.3,0.3-2.6,0.5-3.8
			c1.1-7.8,3.3-15.3,6.4-22.2h5c0.4-0.9,0.8-1.8,1.3-2.7h-5c0.7-1.5,1.5-2.9,2.3-4.3h-9.9c3-5.3,6.6-10.3,10.7-14.8H130
			c6.1-6.9,13.3-12.8,21.4-17.4h5c2.2-1.3,4.5-2.5,6.8-3.6h-9.9c11.4-5.3,24-8.3,37.2-8.3c12.7,0,25.3,3,36.7,8.3h9.9
			c2.3,1.1,4.5,2.3,6.7,3.6h-5c8,4.7,15.1,10.5,20.8,17.4h-14.9c2.4,2.9,4.6,5.9,6.5,9.1h23.1c-1.3-3-2.8-6.1-4.7-9.1h14.9
			c-3.7-6-8.6-11.9-14.4-17.4h5c-1.3-1.2-2.6-2.4-4-3.6H261c-5.3-4.5-11.2-8.6-17.7-12.3h-6.8c-4.9-2.7-10.1-5.1-15.6-7.2h28.2
			c-4.1-1.5-8.2-2.8-12.5-3.8h-21.4c-8-2-16.5-3.1-25.2-3.1c-8.8,0-17.4,1.1-25.6,3.1h21.4c-4.3,1-8.5,2.3-12.5,3.8h-28.2
			c-5.4,2-10.5,4.4-15.4,7.2h6.8c-6.2,3.5-12,7.6-17.4,12.3h9.9c-1.3,1.2-2.6,2.3-3.9,3.6h-5c-5.5,5.3-10.4,11.1-14.6,17.4H90.6
			c-3.1,4.7-5.9,9.6-8.2,14.8h9.9c-0.6,1.4-1.2,2.9-1.8,4.3h5c-0.3,0.9-0.7,1.8-1,2.7h-5c-2.6,7.1-4.3,14.5-5.2,22.2
			c-0.1,1.3-0.3,2.6-0.4,3.8h-5c-0.2,2.5-0.3,5.1-0.3,7.7c0,2.3,0.1,4.5,0.2,6.7h14.9c0.1,1.9,0.3,3.7,0.5,5.5H79.4
			c0.2,1.8,0.5,3.7,0.8,5.5h14.9c0.3,1.8,0.7,3.7,1.1,5.5h-9.9c2.5,10.2,6.5,19.7,11.8,28.4h-9.9c1,1.6,2,3.1,3,4.6h9.9
			c3.1,4.5,6.5,8.7,10.3,12.6h5c3.7,3.9,7.7,7.5,11.9,10.8h-14.9c4.6,3.6,9.5,6.8,14.6,9.6h19.8c7.4,4.1,15.2,7.3,23.3,9.6h-9.9
			c9.4,2.7,19.1,4.1,28.9,4.1c10.3,0,20.2-1.4,29.6-4.1h9.9c8.1-2.3,15.8-5.6,23-9.6H233c5-2.8,9.8-6,14.3-9.6h14.9
			c4.1-3.3,8-6.9,11.6-10.8h-5c3.6-3.9,6.9-8.2,9.9-12.6h-9.9c1-1.5,2-3,2.9-4.6h9.9c5.2-8.7,9.1-18.3,11.5-28.4h9.9
			c0.4-1.8,0.8-3.6,1.1-5.5h-14.9c0.3-1.8,0.6-3.6,0.8-5.5H304.8z"/>
		<path class="st5" d="M311,169.1c0.2-1.4,0.3-2.8,0.4-4.2H176.5v4.2h-14.9v5.5h14.9v5.5h-9.9v2.9h111c-2.5,9.3-6.9,17.9-12.7,25.5
			H255c-1.2,1.6-2.5,3.1-3.8,4.6h9.9c-4.2,4.7-9,8.9-14.1,12.6h5c-6.3,4.5-13.2,8.1-20.5,10.8h-14.9c-9.3,3.5-19.3,5.3-29.2,5.3
			c-10.7,0-21-1.9-30.6-5.3h14.9c-7.5-2.7-14.5-6.3-20.9-10.8h-5c-5.2-3.7-10.1-7.9-14.3-12.6h-9.9c-1.4-1.5-2.7-3-3.9-4.6h9.9
			c-6.6-8.3-11.6-17.9-14.6-28.4h9.9c-0.5-1.8-0.9-3.6-1.3-5.5h-14.9c-0.4-1.8-0.7-3.6-1-5.5h14.9c-0.3-1.8-0.5-3.7-0.6-5.5H105
			c-0.2-2.1-0.3-4.3-0.3-6.4c0-2.7,0.1-5.3,0.4-8h5c0.1-1.3,0.3-2.6,0.5-3.8c1.1-7.8,3.3-15.3,6.4-22.2h5c0.4-0.9,0.8-1.8,1.3-2.7
			h-5c0.7-1.5,1.5-2.9,2.3-4.3h-9.9c3-5.3,6.6-10.3,10.7-14.8h14.9c6.1-6.9,13.3-12.8,21.4-17.4h5c2.2-1.3,4.5-2.5,6.8-3.6h-9.9
			c11.4-5.3,24-8.3,37.2-8.3c12.7,0,25.3,3,36.7,8.3h9.9c2.3,1.1,4.5,2.3,6.7,3.6h-5c8,4.7,15.1,10.5,20.8,17.4h-14.9
			c2.4,2.9,4.6,5.9,6.5,9.1h23.1c-1.3-3-2.8-6.1-4.7-9.1h14.9c-3.7-6-8.6-11.9-14.4-17.4h5c-1.3-1.2-2.6-2.4-4-3.6h-9.9
			c-5.3-4.5-11.2-8.6-17.7-12.3h-6.8c-4.9-2.7-10.1-5.1-15.6-7.2h28.2c-4.1-1.5-8.2-2.8-12.5-3.8h-21.4c-8-2-16.5-3.1-25.2-3.1
			c-8.8,0-17.4,1.1-25.6,3.1H192c-4.3,1-8.5,2.3-12.5,3.8h-28.2c-5.4,2-10.5,4.4-15.4,7.2h6.8c-6.2,3.5-12,7.6-17.4,12.3h9.9
			c-1.3,1.2-2.6,2.3-3.9,3.6h-5c-5.5,5.3-10.4,11.1-14.6,17.4H96.8c-3.1,4.7-5.9,9.6-8.2,14.8h9.9c-0.6,1.4-1.2,2.9-1.8,4.3h5
			c-0.3,0.9-0.7,1.8-1,2.7h-5c-2.6,7.1-4.3,14.5-5.2,22.2c-0.1,1.3-0.3,2.6-0.4,3.8h-5c-0.2,2.5-0.3,5.1-0.3,7.7
			c0,2.3,0.1,4.5,0.2,6.7h14.9c0.1,1.9,0.3,3.7,0.5,5.5H85.6c0.2,1.8,0.5,3.7,0.8,5.5h14.9c0.3,1.8,0.7,3.7,1.1,5.5h-9.9
			c2.5,10.2,6.5,19.7,11.8,28.4h-9.9c1,1.6,2,3.1,3,4.6h9.9c3.1,4.5,6.5,8.7,10.3,12.6h5c3.7,3.9,7.7,7.5,11.9,10.8h-14.9
			c4.6,3.6,9.5,6.8,14.6,9.6h19.8c7.4,4.1,15.2,7.3,23.3,9.6h-9.9c9.4,2.7,19.1,4.1,28.9,4.1c10.3,0,20.2-1.4,29.6-4.1h9.9
			c8.1-2.3,15.8-5.6,23-9.6h-19.8c5-2.8,9.8-6,14.3-9.6h14.9c4.1-3.3,8-6.9,11.6-10.8h-5c3.6-3.9,6.9-8.2,9.9-12.6h-9.9
			c1-1.5,2-3,2.9-4.6h9.9c5.2-8.7,9.1-18.3,11.5-28.4h9.9c0.4-1.8,0.8-3.6,1.1-5.5h-14.9c0.3-1.8,0.6-3.6,0.8-5.5H311z"/>
	</g>
</g>
</svg>
